<svg xmlns="http://www.w3.org/2000/svg" width="1280" height="560"><rect width="1280" height="560" fill="#f8fafc"/><text x="50" y="35" font-family="Arial" font-size="24">Double-track flying junction — whole arrangement — elevation profile</text><text x="50" y="65" font-family="Arial" font-size="16">Projected local axis [1.0, 0.0]; vertical exaggeration 5×; orange intended, navy native</text><path d="M 90 440.0 L 1190 440.0" stroke="#d3dce4"/><text x="30" y="445.0" font-family="Arial" font-size="13">z 3.00</text><path d="M 90 410.33878161697083 L 1190 410.33878161697083" stroke="#d3dce4"/><text x="30" y="415.33878161697083" font-family="Arial" font-size="13">z 6.94</text><path d="M 90 380.67756323394167 L 1190 380.67756323394167" stroke="#d3dce4"/><text x="30" y="385.67756323394167" font-family="Arial" font-size="13">z 10.89</text><path d="M 90 351.0163448509125 L 1190 351.0163448509125" stroke="#d3dce4"/><text x="30" y="356.0163448509125" font-family="Arial" font-size="13">z 14.83</text><path d="M 90 321.35512646788334 L 1190 321.35512646788334" stroke="#d3dce4"/><text x="30" y="326.35512646788334" font-family="Arial" font-size="13">z 18.77</text><path d="M 100.000 440.000 L 113.401 440.000 L 126.802 440.000 L 140.203 440.000 L 153.605 440.000 L 167.006 440.000 L 180.407 440.000 L 193.808 440.000 L 207.209 440.000 L 220.610 440.000 L 234.012 440.000 L 247.413 440.000 L 260.814 440.000 L 274.215 440.000 L 287.616 440.000 L 301.017 440.000 L 314.418 440.000 L 327.820 440.000 L 341.221 440.000 L 354.622 440.000 L 368.023 440.000 L 381.424 440.000 L 394.825 440.000 L 408.227 440.000 L 421.628 440.000 L 435.029 440.000 L 448.430 440.000 L 461.831 440.000 L 475.232 440.000 L 488.633 440.000 L 502.035 440.000 L 515.436 440.000 L 528.837 440.000 L 542.238 440.000 L 555.639 440.000 L 569.040 440.000 L 582.441 440.000 L 595.843 440.000 L 609.244 440.000 L 622.645 440.000 L 636.046 440.000 L 649.447 440.000 L 662.848 440.000 L 676.250 440.000 L 689.651 440.000 L 703.052 440.000 L 716.453 440.000 L 729.854 440.000 L 743.255 440.000 L 756.656 440.000 L 770.058 440.000 L 783.459 440.000 L 796.860 440.000 L 810.261 440.000 L 823.662 440.000 L 837.063 440.000 L 850.465 440.000 L 863.866 440.000 L 877.267 440.000 L 890.668 440.000 L 904.069 440.000 L 917.470 440.000 L 930.871 440.000 L 944.273 440.000 L 957.674 440.000" fill="none" stroke="#f5a524" stroke-width="2"><title>AB_UP</title></path><path d="M 100.000 440.000 L 113.401 440.000 L 126.802 440.000 L 140.203 440.000 L 153.605 440.000 L 167.006 440.000 L 180.407 440.000 L 193.808 440.000 L 207.209 440.000 L 220.610 440.000 L 234.012 440.000 L 247.413 440.000 L 260.814 440.000 L 274.215 440.000 L 287.616 440.000 L 301.017 440.000 L 314.418 440.000 L 327.820 440.000 L 341.221 440.000 L 354.622 440.000 L 368.023 440.000 L 381.424 440.000 L 394.825 440.000 L 408.227 440.000 L 421.628 440.000 L 435.029 440.000 L 448.430 440.000 L 461.831 440.000 L 475.232 440.000 L 488.633 440.000 L 502.035 440.000 L 515.436 440.000 L 528.837 440.000 L 542.238 440.000 L 555.639 440.000 L 569.040 440.000 L 582.441 440.000 L 595.843 440.000 L 609.244 440.000 L 622.645 440.000 L 636.046 440.000 L 649.447 440.000 L 662.848 440.000 L 676.250 440.000 L 689.651 440.000 L 703.052 440.000 L 716.453 440.000 L 729.854 440.000 L 743.255 440.000 L 756.656 440.000 L 770.058 440.000 L 783.459 440.000 L 796.860 440.000 L 810.261 440.000 L 823.662 440.000 L 837.063 440.000 L 850.465 440.000 L 863.866 440.000 L 877.267 440.000 L 890.668 440.000 L 904.069 440.000 L 917.470 440.000 L 930.871 440.000 L 944.273 440.000 L 957.674 440.000" fill="none" stroke="#f5a524" stroke-width="2"><title>AB_DOWN</title></path><path d="M 220.375 440.000 L 221.792 440.000 L 223.208 440.000 L 224.625 440.000 L 226.041 440.000 L 227.457 440.000 L 228.873 440.000 L 230.289 440.000 L 231.705 440.000 L 233.121 440.000 L 234.537 440.000 L 235.952 440.000 L 237.368 440.000 L 238.783 440.000 L 240.198 440.000 L 241.613 440.000 L 243.028 440.000 L 244.443 440.000 L 245.857 440.000 L 247.272 440.000 L 248.686 440.000 L 250.100 440.000 L 251.514 440.000 L 252.928 440.000 L 254.341 440.000 L 255.754 440.000 L 257.168 440.000 L 258.580 440.000 L 259.993 440.000 L 261.405 440.000 L 262.818 440.000 L 264.230 440.000 L 265.641 440.000 L 267.053 440.000 L 268.464 440.000 L 269.875 440.000 L 271.286 440.000 L 272.696 440.000 L 274.106 440.000 L 275.516 440.000 L 276.926 440.000 L 278.335 440.000 L 279.744 440.000 L 281.153 440.000 L 282.561 440.000 L 283.970 440.000 L 285.377 440.000 L 286.785 440.000 L 288.192 440.000 L 289.599 440.000 L 291.005 440.000 L 292.411 440.000 L 293.817 440.000 L 295.222 440.000 L 296.628 440.000 L 298.032 440.000 L 299.436 440.000 L 300.840 440.000 L 302.244 440.000 L 303.647 440.000 L 305.050 440.000 L 306.452 440.000 L 307.854 440.000 L 309.256 440.000 L 310.657 440.000" fill="none" stroke="#f5a524" stroke-width="2"><title>C_DOWN_level_turnout</title></path><path d="M 310.657 440.000 L 315.310 439.914 L 319.970 439.660 L 324.636 439.242 L 329.307 438.668 L 333.984 437.941 L 338.667 437.067 L 343.354 436.052 L 348.046 434.902 L 352.743 433.621 L 357.445 432.215 L 362.150 430.690 L 366.860 429.051 L 371.573 427.303 L 376.290 425.452 L 381.010 423.503 L 385.733 421.462 L 390.459 419.334 L 395.187 417.124 L 399.918 414.838 L 404.651 412.482 L 409.386 410.061 L 414.122 407.580 L 418.860 405.044 L 423.600 402.460 L 428.340 399.832 L 433.081 397.166 L 437.823 394.468 L 442.565 391.743 L 447.307 388.995 L 452.049 386.232 L 456.791 383.457 L 461.532 380.678 L 466.272 377.898 L 471.011 375.123 L 475.749 372.360 L 480.486 369.613 L 485.221 366.887 L 489.954 364.189 L 494.684 361.523 L 499.413 358.895 L 504.139 356.311 L 508.862 353.775 L 513.582 351.294 L 518.298 348.873 L 523.011 346.517 L 527.721 344.231 L 532.426 342.021 L 537.128 339.893 L 541.825 337.852 L 546.517 335.903 L 551.204 334.052 L 555.886 332.304 L 560.563 330.665 L 565.235 329.140 L 569.901 327.734 L 574.560 326.453 L 579.214 325.303 L 583.861 324.288 L 588.501 323.414 L 593.135 322.688 L 597.761 322.113 L 602.380 321.695 L 606.991 321.441 L 611.595 321.355" fill="none" stroke="#f5a524" stroke-width="2"><title>C_DOWN_earth_rise</title></path><path d="M 611.595 321.355 L 613.807 321.355 L 616.019 321.355 L 618.231 321.355 L 620.444 321.355 L 622.656 321.355 L 624.868 321.355 L 627.080 321.355 L 629.292 321.355 L 631.505 321.355 L 633.717 321.355 L 635.929 321.355 L 638.141 321.355 L 640.353 321.355 L 642.566 321.355 L 644.778 321.355 L 646.990 321.355 L 649.202 321.355 L 651.414 321.355 L 653.627 321.355 L 655.839 321.355 L 658.051 321.355 L 660.263 321.355 L 662.475 321.355 L 664.687 321.355 L 666.900 321.355 L 669.112 321.355 L 671.324 321.355 L 673.536 321.355 L 675.748 321.355 L 677.961 321.355 L 680.173 321.355 L 682.385 321.355 L 684.597 321.355 L 686.809 321.355 L 689.022 321.355 L 691.234 321.355 L 693.446 321.355 L 695.658 321.355 L 697.870 321.355 L 700.083 321.355 L 702.295 321.355 L 704.507 321.355 L 706.719 321.355 L 708.931 321.355 L 711.144 321.355 L 713.356 321.355 L 715.568 321.355 L 717.780 321.355 L 719.992 321.355 L 722.204 321.355 L 724.417 321.355 L 726.629 321.355 L 728.841 321.355 L 731.053 321.355 L 733.265 321.355 L 735.478 321.355 L 737.690 321.355 L 739.902 321.355 L 742.114 321.355 L 744.326 321.355 L 746.539 321.355 L 748.751 321.355 L 750.963 321.355 L 753.175 321.355" fill="none" stroke="#f5a524" stroke-width="2"><title>C_DOWN_level_bridge</title></path><path d="M 753.175 321.355 L 759.154 321.441 L 765.134 321.695 L 771.113 322.113 L 777.092 322.688 L 783.071 323.414 L 789.051 324.288 L 795.030 325.303 L 801.009 326.453 L 806.988 327.734 L 812.967 329.140 L 818.947 330.665 L 824.926 332.304 L 830.905 334.052 L 836.884 335.903 L 842.864 337.852 L 848.843 339.893 L 854.822 342.021 L 860.801 344.231 L 866.780 346.517 L 872.760 348.873 L 878.739 351.294 L 884.718 353.775 L 890.697 356.311 L 896.677 358.895 L 902.656 361.523 L 908.635 364.189 L 914.614 366.887 L 920.594 369.613 L 926.573 372.360 L 932.552 375.123 L 938.531 377.898 L 944.510 380.678 L 950.490 383.457 L 956.469 386.232 L 962.448 388.995 L 968.427 391.743 L 974.407 394.468 L 980.386 397.166 L 986.365 399.832 L 992.344 402.460 L 998.323 405.044 L 1004.303 407.580 L 1010.282 410.061 L 1016.261 412.482 L 1022.240 414.838 L 1028.220 417.124 L 1034.199 419.334 L 1040.178 421.462 L 1046.157 423.503 L 1052.136 425.452 L 1058.116 427.303 L 1064.095 429.051 L 1070.074 430.690 L 1076.053 432.215 L 1082.033 433.621 L 1088.012 434.902 L 1093.991 436.052 L 1099.970 437.067 L 1105.950 437.941 L 1111.929 438.668 L 1117.908 439.242 L 1123.887 439.660 L 1129.866 439.914 L 1135.846 440.000" fill="none" stroke="#f5a524" stroke-width="2"><title>C_DOWN_earth_descent</title></path><path d="M 400.938 440.000 L 412.502 440.000 L 424.063 440.000 L 435.622 440.000 L 447.179 440.000 L 458.734 440.000 L 470.286 440.000 L 481.836 440.000 L 493.384 440.000 L 504.929 440.000 L 516.471 440.000 L 528.011 440.000 L 539.548 440.000 L 551.082 440.000 L 562.614 440.000 L 574.142 440.000 L 585.668 440.000 L 597.191 440.000 L 608.711 440.000 L 620.227 440.000 L 631.740 440.000 L 643.251 440.000 L 654.757 440.000 L 666.261 440.000 L 677.761 440.000 L 689.258 440.000 L 700.751 440.000 L 712.240 440.000 L 723.726 440.000 L 735.208 440.000 L 746.686 440.000 L 758.161 440.000 L 769.632 440.000 L 781.098 440.000 L 792.561 440.000 L 804.019 440.000 L 815.474 440.000 L 826.924 440.000 L 838.370 440.000 L 849.812 440.000 L 861.249 440.000 L 872.682 440.000 L 884.111 440.000 L 895.535 440.000 L 906.954 440.000 L 918.369 440.000 L 929.779 440.000 L 941.184 440.000 L 952.584 440.000 L 963.979 440.000 L 975.370 440.000 L 986.755 440.000 L 998.136 440.000 L 1009.511 440.000 L 1020.881 440.000 L 1032.245 440.000 L 1043.605 440.000 L 1054.959 440.000 L 1066.307 440.000 L 1077.651 440.000 L 1088.988 440.000 L 1100.320 440.000 L 1111.646 440.000 L 1122.967 440.000 L 1134.281 440.000" fill="none" stroke="#f5a524" stroke-width="2"><title>C_UP_ground</title></path><path d="M 1134.281 440.000 L 1134.971 440.000 L 1135.661 440.000 L 1136.351 440.000 L 1137.041 440.000 L 1137.731 440.000 L 1138.421 440.000 L 1139.111 440.000 L 1139.801 440.000 L 1140.491 440.000 L 1141.181 440.000 L 1141.870 440.000 L 1142.560 440.000 L 1143.250 440.000 L 1143.940 440.000 L 1144.630 440.000 L 1145.320 440.000 L 1146.010 440.000 L 1146.700 440.000 L 1147.390 440.000 L 1148.080 440.000 L 1148.770 440.000 L 1149.459 440.000 L 1150.149 440.000 L 1150.839 440.000 L 1151.529 440.000 L 1152.219 440.000 L 1152.909 440.000 L 1153.599 440.000 L 1154.289 440.000 L 1154.979 440.000 L 1155.669 440.000 L 1156.359 440.000 L 1157.049 440.000 L 1157.738 440.000 L 1158.428 440.000 L 1159.118 440.000 L 1159.808 440.000 L 1160.498 440.000 L 1161.188 440.000 L 1161.878 440.000 L 1162.568 440.000 L 1163.258 440.000 L 1163.948 440.000 L 1164.638 440.000 L 1165.327 440.000 L 1166.017 440.000 L 1166.707 440.000 L 1167.397 440.000 L 1168.087 440.000 L 1168.777 440.000 L 1169.467 440.000 L 1170.157 440.000 L 1170.847 440.000 L 1171.537 440.000 L 1172.227 440.000 L 1172.916 440.000 L 1173.606 440.000 L 1174.296 440.000 L 1174.986 440.000 L 1175.676 440.000 L 1176.366 440.000 L 1177.056 440.000 L 1177.746 440.000 L 1178.436 440.000" fill="none" stroke="#f5a524" stroke-width="2"><title>C_UP_lead</title></path><path d="M 1135.846 440.000 L 1136.536 440.000 L 1137.225 440.000 L 1137.915 440.000 L 1138.605 440.000 L 1139.295 440.000 L 1139.985 440.000 L 1140.675 440.000 L 1141.365 440.000 L 1142.055 440.000 L 1142.745 440.000 L 1143.435 440.000 L 1144.125 440.000 L 1144.815 440.000 L 1145.504 440.000 L 1146.194 440.000 L 1146.884 440.000 L 1147.574 440.000 L 1148.264 440.000 L 1148.954 440.000 L 1149.644 440.000 L 1150.334 440.000 L 1151.024 440.000 L 1151.714 440.000 L 1152.404 440.000 L 1153.093 440.000 L 1153.783 440.000 L 1154.473 440.000 L 1155.163 440.000 L 1155.853 440.000 L 1156.543 440.000 L 1157.233 440.000 L 1157.923 440.000 L 1158.613 440.000 L 1159.303 440.000 L 1159.993 440.000 L 1160.682 440.000 L 1161.372 440.000 L 1162.062 440.000 L 1162.752 440.000 L 1163.442 440.000 L 1164.132 440.000 L 1164.822 440.000 L 1165.512 440.000 L 1166.202 440.000 L 1166.892 440.000 L 1167.582 440.000 L 1168.271 440.000 L 1168.961 440.000 L 1169.651 440.000 L 1170.341 440.000 L 1171.031 440.000 L 1171.721 440.000 L 1172.411 440.000 L 1173.101 440.000 L 1173.791 440.000 L 1174.481 440.000 L 1175.171 440.000 L 1175.860 440.000 L 1176.550 440.000 L 1177.240 440.000 L 1177.930 440.000 L 1178.620 440.000 L 1179.310 440.000 L 1180.000 440.000" fill="none" stroke="#f5a524" stroke-width="2"><title>C_DOWN_lead</title></path><path d="M 100.000 440.000 L 100.940 440.000 L 101.881 440.000 L 102.821 440.000 L 103.762 440.000 L 104.702 440.000 L 105.643 440.000 L 106.583 440.000 L 107.523 440.000 L 108.464 440.000 L 109.404 440.000 L 110.345 440.000 L 111.285 440.000 L 112.226 440.000 L 113.166 440.000 L 114.106 440.000 L 115.047 440.000 L 115.987 440.000 L 116.928 440.000 L 117.868 440.000 L 118.809 440.000 L 119.749 440.000 L 120.689 440.000 L 121.630 440.000 L 122.570 440.000 L 123.511 440.000 L 124.451 440.000 L 125.392 440.000 L 126.332 440.000 L 127.273 440.000 L 128.213 440.000 L 129.153 440.000 L 130.094 440.000 L 131.034 440.000 L 131.975 440.000 L 132.915 440.000 L 133.856 440.000 L 134.796 440.000 L 135.736 440.000 L 136.677 440.000 L 137.617 440.000 L 138.558 440.000 L 139.498 440.000 L 140.439 440.000 L 141.379 440.000 L 142.319 440.000 L 143.260 440.000 L 144.200 440.000 L 145.141 440.000 L 146.081 440.000 L 147.022 440.000 L 147.962 440.000 L 148.902 440.000 L 149.843 440.000 L 150.783 440.000 L 151.724 440.000 L 152.664 440.000 L 153.605 440.000 L 154.545 440.000 L 155.485 440.000 L 156.426 440.000 L 157.366 440.000 L 158.307 440.000 L 159.247 440.000 L 160.188 440.000" fill="none" stroke="#193950" stroke-width="2"><title>native 67558</title></path><path d="M 400.806 440.000 L 412.371 440.000 L 423.935 440.000 L 435.496 440.000 L 447.055 440.000 L 458.612 440.000 L 470.166 440.000 L 481.718 440.000 L 493.268 440.000 L 504.815 440.000 L 516.359 440.000 L 527.901 440.000 L 539.441 440.000 L 550.977 440.000 L 562.510 440.000 L 574.041 440.000 L 585.569 440.000 L 597.094 440.000 L 608.616 440.000 L 620.134 440.000 L 631.650 440.000 L 643.162 440.000 L 654.671 440.000 L 666.176 440.000 L 677.678 440.000 L 689.177 440.000 L 700.672 440.000 L 712.164 440.000 L 723.652 440.000 L 735.136 440.000 L 746.616 440.000 L 758.093 440.000 L 769.566 440.000 L 781.034 440.000 L 792.499 440.000 L 803.960 440.000 L 815.416 440.000 L 826.869 440.000 L 838.317 440.000 L 849.761 440.000 L 861.200 440.000 L 872.635 440.000 L 884.066 440.000 L 895.492 440.000 L 906.913 440.000 L 918.330 440.000 L 929.742 440.000 L 941.149 440.000 L 952.551 440.000 L 963.949 440.000 L 975.341 440.000 L 986.729 440.000 L 998.111 440.000 L 1009.488 440.000 L 1020.860 440.000 L 1032.227 440.000 L 1043.589 440.000 L 1054.945 440.000 L 1066.295 440.000 L 1077.640 440.000 L 1088.980 440.000 L 1100.314 440.000 L 1111.642 440.000 L 1122.965 440.000 L 1134.281 440.000" fill="none" stroke="#193950" stroke-width="2"><title>native 67621</title></path><path d="M 160.188 440.000 L 163.947 440.000 L 167.707 440.000 L 171.467 440.000 L 175.226 440.000 L 178.986 440.000 L 182.746 440.000 L 186.505 440.000 L 190.265 440.000 L 194.025 440.000 L 197.784 440.000 L 201.544 440.000 L 205.304 440.000 L 209.063 440.000 L 212.823 440.000 L 216.583 440.000 L 220.342 440.000 L 224.102 440.000 L 227.862 440.000 L 231.621 440.000 L 235.381 440.000 L 239.141 440.000 L 242.900 440.000 L 246.660 440.000 L 250.419 440.000 L 254.179 440.000 L 257.939 440.000 L 261.698 440.000 L 265.458 440.000 L 269.218 440.000 L 272.977 440.000 L 276.737 440.000 L 280.497 440.000 L 284.256 440.000 L 288.016 440.000 L 291.776 440.000 L 295.535 440.000 L 299.295 440.000 L 303.055 440.000 L 306.814 440.000 L 310.574 440.000 L 314.334 440.000 L 318.093 440.000 L 321.853 440.000 L 325.613 440.000 L 329.372 440.000 L 333.132 440.000 L 336.892 440.000 L 340.651 440.000 L 344.411 440.000 L 348.171 440.000 L 351.930 440.000 L 355.690 440.000 L 359.450 440.000 L 363.209 440.000 L 366.969 440.000 L 370.729 440.000 L 374.488 440.000 L 378.248 440.000 L 382.008 440.000 L 385.767 440.000 L 389.527 440.000 L 393.287 440.000 L 397.046 440.000 L 400.806 440.000" fill="none" stroke="#193950" stroke-width="2"><title>native 67632</title></path><path d="M 100.000 440.000 L 100.940 440.000 L 101.881 440.000 L 102.821 440.000 L 103.762 440.000 L 104.702 440.000 L 105.643 440.000 L 106.583 440.000 L 107.523 440.000 L 108.464 440.000 L 109.404 440.000 L 110.345 440.000 L 111.285 440.000 L 112.226 440.000 L 113.166 440.000 L 114.106 440.000 L 115.047 440.000 L 115.987 440.000 L 116.928 440.000 L 117.868 440.000 L 118.809 440.000 L 119.749 440.000 L 120.689 440.000 L 121.630 440.000 L 122.570 440.000 L 123.511 440.000 L 124.451 440.000 L 125.392 440.000 L 126.332 440.000 L 127.273 440.000 L 128.213 440.000 L 129.153 440.000 L 130.094 440.000 L 131.034 440.000 L 131.975 440.000 L 132.915 440.000 L 133.856 440.000 L 134.796 440.000 L 135.736 440.000 L 136.677 440.000 L 137.617 440.000 L 138.558 440.000 L 139.498 440.000 L 140.439 440.000 L 141.379 440.000 L 142.319 440.000 L 143.260 440.000 L 144.200 440.000 L 145.141 440.000 L 146.081 440.000 L 147.022 440.000 L 147.962 440.000 L 148.902 440.000 L 149.843 440.000 L 150.783 440.000 L 151.724 440.000 L 152.664 440.000 L 153.605 440.000 L 154.545 440.000 L 155.485 440.000 L 156.426 440.000 L 157.366 440.000 L 158.307 440.000 L 159.247 440.000 L 160.188 440.000" fill="none" stroke="#193950" stroke-width="2"><title>native 67635</title></path><path d="M 400.806 440.000 L 408.802 440.000 L 416.797 440.000 L 424.793 440.000 L 432.789 440.000 L 440.785 440.000 L 448.780 440.000 L 456.776 440.000 L 464.772 440.000 L 472.768 440.000 L 480.763 440.000 L 488.759 440.000 L 496.755 440.000 L 504.750 440.000 L 512.746 440.000 L 520.742 440.000 L 528.738 440.000 L 536.733 440.000 L 544.729 440.000 L 552.725 440.000 L 560.721 440.000 L 568.716 440.000 L 576.712 440.000 L 584.708 440.000 L 592.704 440.000 L 600.699 440.000 L 608.695 440.000 L 616.691 440.000 L 624.687 440.000 L 632.682 440.000 L 640.678 440.000 L 648.674 440.000 L 656.669 440.000 L 664.665 440.000 L 672.661 440.000 L 680.657 440.000 L 688.652 440.000 L 696.648 440.000 L 704.644 440.000 L 712.640 440.000 L 720.635 440.000 L 728.631 440.000 L 736.627 440.000 L 744.623 440.000 L 752.618 440.000 L 760.614 440.000 L 768.610 440.000 L 776.606 440.000 L 784.601 440.000 L 792.597 440.000 L 800.593 440.000 L 808.588 440.000 L 816.584 440.000 L 824.580 440.000 L 832.576 440.000 L 840.571 440.000 L 848.567 440.000 L 856.563 440.000 L 864.559 440.000 L 872.554 440.000 L 880.550 440.000 L 888.546 440.000 L 896.542 440.000 L 904.537 440.000 L 912.533 440.000" fill="none" stroke="#193950" stroke-width="2"><title>native 67640</title></path><path d="M 220.434 440.000 L 231.248 440.000 L 242.062 440.000 L 252.876 440.000 L 263.690 440.000 L 274.504 440.000 L 285.318 440.000 L 296.132 440.000 L 306.946 440.000 L 317.760 440.000 L 328.575 440.000 L 339.389 440.000 L 350.203 440.000 L 361.017 440.000 L 371.831 440.000 L 382.645 440.000 L 393.459 440.000 L 404.273 440.000 L 415.087 440.000 L 425.901 440.000 L 436.715 440.000 L 447.529 440.000 L 458.343 440.000 L 469.157 440.000 L 479.971 440.000 L 490.785 440.000 L 501.599 440.000 L 512.413 440.000 L 523.227 440.000 L 534.041 440.000 L 544.855 440.000 L 555.669 440.000 L 566.484 440.000 L 577.298 440.000 L 588.112 440.000 L 598.926 440.000 L 609.740 440.000 L 620.554 440.000 L 631.368 440.000 L 642.182 440.000 L 652.996 440.000 L 663.810 440.000 L 674.624 440.000 L 685.438 440.000 L 696.252 440.000 L 707.066 440.000 L 717.880 440.000 L 728.694 440.000 L 739.508 440.000 L 750.322 440.000 L 761.136 440.000 L 771.950 440.000 L 782.764 440.000 L 793.579 440.000 L 804.393 440.000 L 815.207 440.000 L 826.021 440.000 L 836.835 440.000 L 847.649 440.000 L 858.463 440.000 L 869.277 440.000 L 880.091 440.000 L 890.905 440.000 L 901.719 440.000 L 912.533 440.000" fill="none" stroke="#193950" stroke-width="2"><title>native 67658</title></path><path d="M 611.595 321.355 L 613.807 321.355 L 616.019 321.355 L 618.231 321.355 L 620.444 321.355 L 622.656 321.355 L 624.868 321.355 L 627.080 321.355 L 629.292 321.355 L 631.505 321.355 L 633.717 321.355 L 635.929 321.355 L 638.141 321.355 L 640.353 321.355 L 642.566 321.355 L 644.778 321.355 L 646.990 321.355 L 649.202 321.355 L 651.414 321.355 L 653.627 321.355 L 655.839 321.355 L 658.051 321.355 L 660.263 321.355 L 662.475 321.355 L 664.688 321.355 L 666.900 321.355 L 669.112 321.355 L 671.324 321.355 L 673.536 321.355 L 675.748 321.355 L 677.961 321.355 L 680.173 321.355 L 682.385 321.355 L 684.597 321.355 L 686.809 321.355 L 689.022 321.355 L 691.234 321.355 L 693.446 321.355 L 695.658 321.355 L 697.870 321.355 L 700.083 321.355 L 702.295 321.355 L 704.507 321.355 L 706.719 321.355 L 708.931 321.355 L 711.144 321.355 L 713.356 321.355 L 715.568 321.355 L 717.780 321.355 L 719.992 321.355 L 722.205 321.355 L 724.417 321.355 L 726.629 321.355 L 728.841 321.355 L 731.053 321.355 L 733.265 321.355 L 735.478 321.355 L 737.690 321.355 L 739.902 321.355 L 742.114 321.355 L 744.326 321.355 L 746.539 321.355 L 748.751 321.355 L 750.963 321.355 L 753.175 321.355" fill="none" stroke="#193950" stroke-width="2"><title>native 67659</title></path><path d="M 160.188 440.000 L 160.423 440.000 L 160.658 440.000 L 160.894 440.000 L 161.129 440.000 L 161.364 440.000 L 161.600 440.000 L 161.835 440.000 L 162.070 440.000 L 162.306 440.000 L 162.541 440.000 L 162.776 440.000 L 163.012 440.000 L 163.247 440.000 L 163.482 440.000 L 163.718 440.000 L 163.953 440.000 L 164.188 440.000 L 164.424 440.000 L 164.659 440.000 L 164.894 440.000 L 165.130 440.000 L 165.365 440.000 L 165.600 440.000 L 165.836 440.000 L 166.071 440.000 L 166.306 440.000 L 166.542 440.000 L 166.777 440.000 L 167.012 440.000 L 167.248 440.000 L 167.483 440.000 L 167.718 440.000 L 167.954 440.000 L 168.189 440.000 L 168.424 440.000 L 168.660 440.000 L 168.895 440.000 L 169.130 440.000 L 169.366 440.000 L 169.601 440.000 L 169.836 440.000 L 170.072 440.000 L 170.307 440.000 L 170.542 440.000 L 170.778 440.000 L 171.013 440.000 L 171.248 440.000 L 171.484 440.000 L 171.719 440.000 L 171.955 440.000 L 172.190 440.000 L 172.425 440.000 L 172.661 440.000 L 172.896 440.000 L 173.131 440.000 L 173.367 440.000 L 173.602 440.000 L 173.837 440.000 L 174.073 440.000 L 174.308 440.000 L 174.543 440.000 L 174.779 440.000 L 175.014 440.000 L 175.249 440.000" fill="none" stroke="#193950" stroke-width="2"><title>native 67663</title></path><path d="M 175.249 440.000 L 175.955 440.000 L 176.661 440.000 L 177.367 440.000 L 178.073 440.000 L 178.779 440.000 L 179.485 440.000 L 180.191 440.000 L 180.897 440.000 L 181.603 440.000 L 182.309 440.000 L 183.015 440.000 L 183.721 440.000 L 184.427 440.000 L 185.133 440.000 L 185.839 440.000 L 186.545 440.000 L 187.251 440.000 L 187.957 440.000 L 188.663 440.000 L 189.369 440.000 L 190.075 440.000 L 190.782 440.000 L 191.488 440.000 L 192.194 440.000 L 192.900 440.000 L 193.606 440.000 L 194.312 440.000 L 195.018 440.000 L 195.724 440.000 L 196.430 440.000 L 197.136 440.000 L 197.842 440.000 L 198.548 440.000 L 199.254 440.000 L 199.960 440.000 L 200.666 440.000 L 201.372 440.000 L 202.078 440.000 L 202.784 440.000 L 203.490 440.000 L 204.196 440.000 L 204.902 440.000 L 205.608 440.000 L 206.314 440.000 L 207.020 440.000 L 207.726 440.000 L 208.432 440.000 L 209.138 440.000 L 209.844 440.000 L 210.550 440.000 L 211.256 440.000 L 211.962 440.000 L 212.668 440.000 L 213.374 440.000 L 214.080 440.000 L 214.786 440.000 L 215.492 440.000 L 216.198 440.000 L 216.904 440.000 L 217.610 440.000 L 218.316 440.000 L 219.022 440.000 L 219.728 440.000 L 220.434 440.000" fill="none" stroke="#193950" stroke-width="2"><title>native 67664</title></path><path d="M 175.249 440.000 L 176.666 440.000 L 178.082 440.000 L 179.498 440.000 L 180.914 440.000 L 182.330 440.000 L 183.746 440.000 L 185.162 440.000 L 186.577 440.000 L 187.993 440.000 L 189.408 440.000 L 190.824 440.000 L 192.239 440.000 L 193.654 440.000 L 195.069 440.000 L 196.484 440.000 L 197.898 440.000 L 199.313 440.000 L 200.727 440.000 L 202.141 440.000 L 203.555 440.000 L 204.969 440.000 L 206.383 440.000 L 207.796 440.000 L 209.210 440.000 L 210.623 440.000 L 212.035 440.000 L 213.448 440.000 L 214.861 440.000 L 216.273 440.000 L 217.685 440.000 L 219.096 440.000 L 220.508 440.000 L 221.919 440.000 L 223.330 440.000 L 224.741 440.000 L 226.151 440.000 L 227.562 440.000 L 228.972 440.000 L 230.381 440.000 L 231.791 440.000 L 233.200 440.000 L 234.609 440.000 L 236.017 440.000 L 237.425 440.000 L 238.833 440.000 L 240.241 440.000 L 241.648 440.000 L 243.055 440.000 L 244.461 440.000 L 245.868 440.000 L 247.274 440.000 L 248.679 440.000 L 250.084 440.000 L 251.489 440.000 L 252.893 440.000 L 254.298 440.000 L 255.701 440.000 L 257.105 440.000 L 258.507 440.000 L 259.910 440.000 L 261.312 440.000 L 262.714 440.000 L 264.115 440.000 L 265.516 440.000" fill="none" stroke="#193950" stroke-width="2"><title>native 67665</title></path><path d="M 265.516 440.000 L 270.868 439.914 L 276.226 439.660 L 281.592 439.242 L 286.964 438.668 L 292.343 437.941 L 297.727 437.067 L 303.118 436.052 L 308.514 434.902 L 313.915 433.621 L 319.322 432.215 L 324.733 430.690 L 330.149 429.051 L 335.569 427.303 L 340.994 425.452 L 346.421 423.503 L 351.853 421.462 L 357.288 419.334 L 362.725 417.124 L 368.166 414.838 L 373.609 412.482 L 379.054 410.061 L 384.501 407.580 L 389.950 405.044 L 395.400 402.460 L 400.852 399.832 L 406.304 397.166 L 411.757 394.468 L 417.210 391.743 L 422.664 388.995 L 428.117 386.232 L 433.570 383.457 L 439.022 380.678 L 444.474 377.898 L 449.924 375.123 L 455.373 372.360 L 460.820 369.613 L 466.265 366.887 L 471.708 364.189 L 477.148 361.523 L 482.586 358.895 L 488.021 356.311 L 493.452 353.775 L 498.880 351.294 L 504.304 348.873 L 509.724 346.517 L 515.140 344.231 L 520.551 342.021 L 525.958 339.893 L 531.359 337.852 L 536.755 335.903 L 542.146 334.052 L 547.531 332.304 L 552.909 330.665 L 558.281 329.140 L 563.647 327.734 L 569.005 326.453 L 574.357 325.303 L 579.701 324.288 L 585.037 323.414 L 590.366 322.688 L 595.686 322.113 L 600.998 321.695 L 606.301 321.441 L 611.595 321.355" fill="none" stroke="#193950" stroke-width="2"><title>native 67666</title></path><path d="M 957.674 440.000 L 956.968 440.000 L 956.263 440.000 L 955.558 440.000 L 954.852 440.000 L 954.147 440.000 L 953.442 440.000 L 952.736 440.000 L 952.031 440.000 L 951.326 440.000 L 950.621 440.000 L 949.915 440.000 L 949.210 440.000 L 948.505 440.000 L 947.799 440.000 L 947.094 440.000 L 946.389 440.000 L 945.683 440.000 L 944.978 440.000 L 944.273 440.000 L 943.567 440.000 L 942.862 440.000 L 942.157 440.000 L 941.451 440.000 L 940.746 440.000 L 940.041 440.000 L 939.335 440.000 L 938.630 440.000 L 937.925 440.000 L 937.219 440.000 L 936.514 440.000 L 935.809 440.000 L 935.103 440.000 L 934.398 440.000 L 933.693 440.000 L 932.987 440.000 L 932.282 440.000 L 931.577 440.000 L 930.871 440.000 L 930.166 440.000 L 929.461 440.000 L 928.755 440.000 L 928.050 440.000 L 927.345 440.000 L 926.640 440.000 L 925.934 440.000 L 925.229 440.000 L 924.524 440.000 L 923.818 440.000 L 923.113 440.000 L 922.408 440.000 L 921.702 440.000 L 920.997 440.000 L 920.292 440.000 L 919.586 440.000 L 918.881 440.000 L 918.176 440.000 L 917.470 440.000 L 916.765 440.000 L 916.060 440.000 L 915.354 440.000 L 914.649 440.000 L 913.944 440.000 L 913.238 440.000 L 912.533 440.000" fill="none" stroke="#193950" stroke-width="2"><title>native 67631</title></path><path d="M 957.674 440.000 L 956.968 440.000 L 956.263 440.000 L 955.558 440.000 L 954.852 440.000 L 954.147 440.000 L 953.442 440.000 L 952.736 440.000 L 952.031 440.000 L 951.326 440.000 L 950.621 440.000 L 949.915 440.000 L 949.210 440.000 L 948.505 440.000 L 947.799 440.000 L 947.094 440.000 L 946.389 440.000 L 945.683 440.000 L 944.978 440.000 L 944.273 440.000 L 943.567 440.000 L 942.862 440.000 L 942.157 440.000 L 941.451 440.000 L 940.746 440.000 L 940.041 440.000 L 939.335 440.000 L 938.630 440.000 L 937.925 440.000 L 937.219 440.000 L 936.514 440.000 L 935.809 440.000 L 935.103 440.000 L 934.398 440.000 L 933.693 440.000 L 932.987 440.000 L 932.282 440.000 L 931.577 440.000 L 930.871 440.000 L 930.166 440.000 L 929.461 440.000 L 928.755 440.000 L 928.050 440.000 L 927.345 440.000 L 926.640 440.000 L 925.934 440.000 L 925.229 440.000 L 924.524 440.000 L 923.818 440.000 L 923.113 440.000 L 922.408 440.000 L 921.702 440.000 L 920.997 440.000 L 920.292 440.000 L 919.586 440.000 L 918.881 440.000 L 918.176 440.000 L 917.470 440.000 L 916.765 440.000 L 916.060 440.000 L 915.354 440.000 L 914.649 440.000 L 913.944 440.000 L 913.238 440.000 L 912.533 440.000" fill="none" stroke="#193950" stroke-width="2"><title>native 67638</title></path><path d="M 753.175 321.355 L 759.154 321.441 L 765.134 321.695 L 771.113 322.113 L 777.092 322.688 L 783.071 323.414 L 789.051 324.288 L 795.030 325.303 L 801.009 326.453 L 806.988 327.734 L 812.967 329.140 L 818.947 330.665 L 824.926 332.304 L 830.905 334.052 L 836.884 335.903 L 842.864 337.852 L 848.843 339.893 L 854.822 342.021 L 860.801 344.231 L 866.781 346.517 L 872.760 348.873 L 878.739 351.294 L 884.718 353.775 L 890.697 356.311 L 896.677 358.895 L 902.656 361.523 L 908.635 364.189 L 914.614 366.887 L 920.594 369.613 L 926.573 372.360 L 932.552 375.123 L 938.531 377.898 L 944.510 380.678 L 950.490 383.457 L 956.469 386.232 L 962.448 388.995 L 968.427 391.743 L 974.407 394.468 L 980.386 397.166 L 986.365 399.832 L 992.344 402.460 L 998.323 405.044 L 1004.303 407.580 L 1010.282 410.061 L 1016.261 412.482 L 1022.240 414.838 L 1028.220 417.124 L 1034.199 419.334 L 1040.178 421.462 L 1046.157 423.503 L 1052.136 425.452 L 1058.116 427.303 L 1064.095 429.051 L 1070.074 430.690 L 1076.053 432.215 L 1082.033 433.621 L 1088.012 434.902 L 1093.991 436.052 L 1099.970 437.067 L 1105.950 437.941 L 1111.929 438.668 L 1117.908 439.242 L 1123.887 439.660 L 1129.866 439.914 L 1135.846 440.000" fill="none" stroke="#193950" stroke-width="2"><title>native 67655</title></path><path d="M 1178.436 440.000 L 1177.746 440.000 L 1177.056 440.000 L 1176.366 440.000 L 1175.676 440.000 L 1174.986 440.000 L 1174.296 440.000 L 1173.606 440.000 L 1172.916 440.000 L 1172.227 440.000 L 1171.537 440.000 L 1170.847 440.000 L 1170.157 440.000 L 1169.467 440.000 L 1168.777 440.000 L 1168.087 440.000 L 1167.397 440.000 L 1166.707 440.000 L 1166.017 440.000 L 1165.327 440.000 L 1164.637 440.000 L 1163.948 440.000 L 1163.258 440.000 L 1162.568 440.000 L 1161.878 440.000 L 1161.188 440.000 L 1160.498 440.000 L 1159.808 440.000 L 1159.118 440.000 L 1158.428 440.000 L 1157.738 440.000 L 1157.048 440.000 L 1156.359 440.000 L 1155.669 440.000 L 1154.979 440.000 L 1154.289 440.000 L 1153.599 440.000 L 1152.909 440.000 L 1152.219 440.000 L 1151.529 440.000 L 1150.839 440.000 L 1150.149 440.000 L 1149.459 440.000 L 1148.770 440.000 L 1148.080 440.000 L 1147.390 440.000 L 1146.700 440.000 L 1146.010 440.000 L 1145.320 440.000 L 1144.630 440.000 L 1143.940 440.000 L 1143.250 440.000 L 1142.560 440.000 L 1141.870 440.000 L 1141.181 440.000 L 1140.491 440.000 L 1139.801 440.000 L 1139.111 440.000 L 1138.421 440.000 L 1137.731 440.000 L 1137.041 440.000 L 1136.351 440.000 L 1135.661 440.000 L 1134.971 440.000 L 1134.281 440.000" fill="none" stroke="#193950" stroke-width="2"><title>native 67667</title></path><path d="M 1180.000 440.000 L 1179.310 440.000 L 1178.620 440.000 L 1177.930 440.000 L 1177.240 440.000 L 1176.550 440.000 L 1175.861 440.000 L 1175.171 440.000 L 1174.481 440.000 L 1173.791 440.000 L 1173.101 440.000 L 1172.411 440.000 L 1171.721 440.000 L 1171.031 440.000 L 1170.341 440.000 L 1169.651 440.000 L 1168.961 440.000 L 1168.272 440.000 L 1167.582 440.000 L 1166.892 440.000 L 1166.202 440.000 L 1165.512 440.000 L 1164.822 440.000 L 1164.132 440.000 L 1163.442 440.000 L 1162.752 440.000 L 1162.062 440.000 L 1161.372 440.000 L 1160.682 440.000 L 1159.993 440.000 L 1159.303 440.000 L 1158.613 440.000 L 1157.923 440.000 L 1157.233 440.000 L 1156.543 440.000 L 1155.853 440.000 L 1155.163 440.000 L 1154.473 440.000 L 1153.783 440.000 L 1153.093 440.000 L 1152.404 440.000 L 1151.714 440.000 L 1151.024 440.000 L 1150.334 440.000 L 1149.644 440.000 L 1148.954 440.000 L 1148.264 440.000 L 1147.574 440.000 L 1146.884 440.000 L 1146.194 440.000 L 1145.504 440.000 L 1144.814 440.000 L 1144.125 440.000 L 1143.435 440.000 L 1142.745 440.000 L 1142.055 440.000 L 1141.365 440.000 L 1140.675 440.000 L 1139.985 440.000 L 1139.295 440.000 L 1138.605 440.000 L 1137.915 440.000 L 1137.225 440.000 L 1136.536 440.000 L 1135.846 440.000" fill="none" stroke="#193950" stroke-width="2"><title>native 67671</title></path><path d="M 664.6874767420551 140 L 664.6874767420551 440" stroke="#ad8090" stroke-dasharray="4 4"/><text x="50" y="92" font-family="Arial" font-size="12">over_B_DOWN at projected 335.28: planned upper z=18.77, lower z=3.00</text><path d="M 700.0825451093274 158 L 700.0825451093274 440" stroke="#ad8090" stroke-dasharray="4 4"/><text x="50" y="110" font-family="Arial" font-size="12">over_B_UP at projected 358.81: planned upper z=18.77, lower z=3.00</text><text x="90" y="475" font-family="Arial" font-size="14">Projected distance -40.00–677.76, native coordinate units; absolute z axis</text><text x="50" y="520" font-family="Arial" font-size="14">Centreline profiles only; projected height difference is not structure/clearance certification.</text></svg>