<svg xmlns="http://www.w3.org/2000/svg" width="1200" height="370"><rect width="1200" height="370" fill="#f8fafc"/><text x="40" y="35" font-size="24" font-family="Arial">R1 C_DOWN flyover profile — proposed</text><text x="40" y="65" font-size="16" font-family="Arial">Distance along route; vertical exaggeration 5×. Rail levels 3 / 18.5; native clearance unproved.</text><path d="M65 290 H1130" stroke="#777"/><path d="M 65.00 290.00 L 68.63 289.95 L 72.25 289.82 L 75.88 289.59 L 79.50 289.28 L 83.12 288.88 L 86.75 288.39 L 90.37 287.83 L 93.99 287.18 L 97.61 286.46 L 101.23 285.66 L 104.85 284.79 L 108.47 283.84 L 112.09 282.82 L 115.72 281.74 L 119.34 280.58 L 122.96 279.37 L 126.59 278.08 L 130.21 276.74 L 133.84 275.34 L 137.46 273.88 L 141.09 272.36 L 144.72 270.79 L 148.35 269.17 L 151.98 267.50 L 155.61 265.78 L 159.24 264.01 L 162.88 262.20 L 166.51 260.35 L 170.15 258.45 L 173.78 256.52 L 177.42 254.55 L 181.06 252.54 L 184.70 250.50 L 188.34 248.43 L 191.98 246.33 L 195.62 244.20 L 199.27 242.04 L 202.91 239.86 L 206.56 237.66 L 210.20 235.44 L 213.85 233.20 L 217.49 230.94 L 221.14 228.67 L 224.79 226.38 L 228.44 224.09 L 232.08 221.78 L 235.73 219.47 L 239.38 217.15 L 243.03 214.82 L 246.68 212.50 L 250.33 210.18 L 253.98 207.85 L 257.63 205.53 L 261.28 203.22 L 264.92 200.91 L 268.57 198.62 L 272.22 196.33 L 275.87 194.06 L 279.51 191.80 L 283.16 189.56 L 286.80 187.34 L 290.45 185.14 L 294.09 182.96 L 297.74 180.80 L 301.38 178.67 L 305.02 176.57 L 308.66 174.50 L 312.30 172.46 L 315.94 170.45 L 319.58 168.48 L 323.21 166.55 L 326.85 164.65 L 330.48 162.80 L 334.12 160.99 L 337.75 159.22 L 341.38 157.50 L 345.01 155.83 L 348.64 154.21 L 352.27 152.64 L 355.90 151.12 L 359.52 149.66 L 363.15 148.26 L 366.77 146.92 L 370.40 145.63 L 374.02 144.42 L 377.64 143.26 L 381.27 142.18 L 384.89 141.16 L 388.51 140.21 L 392.13 139.34 L 395.75 138.54 L 399.37 137.82 L 402.99 137.17 L 406.61 136.61 L 410.24 136.12 L 413.86 135.72 L 417.48 135.41 L 421.11 135.18 L 424.73 135.05 L 428.36 135.00 L 428.36 135.00 L 431.38 135.00 L 434.37 135.00 L 437.32 135.00 L 440.24 135.00 L 443.14 135.00 L 446.02 135.00 L 448.87 135.00 L 451.71 135.00 L 454.53 135.00 L 457.35 135.00 L 460.15 135.00 L 462.95 135.00 L 465.75 135.00 L 468.54 135.00 L 471.33 135.00 L 474.13 135.00 L 476.94 135.00 L 479.75 135.00 L 482.57 135.00 L 485.39 135.00 L 488.24 135.00 L 491.09 135.00 L 493.95 135.00 L 496.84 135.00 L 499.73 135.00 L 502.65 135.00 L 505.58 135.00 L 508.53 135.00 L 511.49 135.00 L 514.48 135.00 L 517.48 135.00 L 520.50 135.00 L 523.54 135.00 L 526.60 135.00 L 529.68 135.00 L 532.78 135.00 L 535.90 135.00 L 539.03 135.00 L 542.18 135.00 L 545.35 135.00 L 548.54 135.00 L 551.74 135.00 L 554.96 135.00 L 558.20 135.00 L 561.45 135.00 L 564.71 135.00 L 567.99 135.00 L 571.29 135.00 L 574.59 135.00 L 577.91 135.00 L 581.24 135.00 L 584.57 135.00 L 587.92 135.00 L 591.28 135.00 L 594.64 135.00 L 598.02 135.00 L 601.39 135.00 L 604.78 135.00 L 608.17 135.00 L 611.56 135.00 L 614.95 135.00 L 618.35 135.00 L 621.75 135.00 L 625.15 135.00 L 628.54 135.00 L 631.94 135.00 L 635.34 135.00 L 638.73 135.00 L 642.12 135.00 L 645.50 135.00 L 648.88 135.00 L 652.25 135.00 L 655.62 135.00 L 658.98 135.00 L 662.33 135.00 L 665.67 135.00 L 669.01 135.00 L 672.33 135.00 L 675.64 135.00 L 678.94 135.00 L 682.23 135.00 L 685.51 135.00 L 688.78 135.00 L 692.03 135.00 L 695.27 135.00 L 698.49 135.00 L 701.70 135.00 L 704.90 135.00 L 708.09 135.00 L 711.26 135.00 L 714.41 135.00 L 717.56 135.00 L 720.68 135.00 L 723.80 135.00 L 726.90 135.00 L 729.99 135.00 L 733.07 135.00 L 736.14 135.00 L 739.19 135.00 L 742.24 135.00 L 742.24 135.00 L 745.90 135.05 L 749.56 135.18 L 753.22 135.41 L 756.89 135.72 L 760.55 136.12 L 764.21 136.61 L 767.87 137.17 L 771.54 137.82 L 775.20 138.54 L 778.86 139.34 L 782.52 140.21 L 786.19 141.16 L 789.85 142.18 L 793.51 143.26 L 797.17 144.42 L 800.83 145.63 L 804.50 146.92 L 808.16 148.26 L 811.82 149.66 L 815.48 151.12 L 819.15 152.64 L 822.81 154.21 L 826.47 155.83 L 830.13 157.50 L 833.79 159.22 L 837.46 160.99 L 841.12 162.80 L 844.78 164.65 L 848.44 166.55 L 852.11 168.48 L 855.77 170.45 L 859.43 172.46 L 863.09 174.50 L 866.76 176.57 L 870.42 178.67 L 874.08 180.80 L 877.74 182.96 L 881.41 185.14 L 885.07 187.34 L 888.73 189.56 L 892.39 191.80 L 896.06 194.06 L 899.72 196.33 L 903.38 198.62 L 907.04 200.91 L 910.71 203.22 L 914.37 205.53 L 918.03 207.85 L 921.69 210.18 L 925.36 212.50 L 929.02 214.82 L 932.68 217.15 L 936.35 219.47 L 940.01 221.78 L 943.67 224.09 L 947.33 226.38 L 951.00 228.67 L 954.66 230.94 L 958.32 233.20 L 961.98 235.44 L 965.65 237.66 L 969.31 239.86 L 972.97 242.04 L 976.63 244.20 L 980.30 246.33 L 983.96 248.43 L 987.62 250.50 L 991.28 252.54 L 994.95 254.55 L 998.61 256.52 L 1002.27 258.45 L 1005.93 260.35 L 1009.60 262.20 L 1013.26 264.01 L 1016.92 265.78 L 1020.58 267.50 L 1024.24 269.17 L 1027.91 270.79 L 1031.57 272.36 L 1035.23 273.88 L 1038.89 275.34 L 1042.56 276.74 L 1046.22 278.08 L 1049.88 279.37 L 1053.54 280.58 L 1057.21 281.74 L 1060.87 282.82 L 1064.53 283.84 L 1068.19 284.79 L 1071.85 285.66 L 1075.52 286.46 L 1079.18 287.18 L 1082.84 287.83 L 1086.50 288.39 L 1090.17 288.88 L 1093.83 289.28 L 1097.49 289.59 L 1101.15 289.82 L 1104.81 289.95 L 1108.48 290.00" fill="none" stroke="#ed9b29" stroke-width="4"/><text x="40" y="325" font-family="Arial">Level turnout → rise outside trunk → high crossing → landing beside direct C_UP</text></svg>